# xmcd
#
# Track frame offsets:
#	182
#	13875
#	24437
#	36000
#	48582
#	63982
#	74225
#	83695
#	98275
#	111227
#	118165
#
# Disc length: 1773 seconds
#
# Revision: 2
# Processed by: cddbd v1.4PL0 Copyright (c) Steve Scherf et al.
# Submitted via: audiograbber 1.82.02
#
DISCID=9006eb0b
DTITLE=Elis Regina - Como and Porque
DYEAR=1969
DGENRE=MPB
TTITLE0=Aquarela do Brasil e Nêga do cabelo duro
TTITLE1=O sonho
TTITLE2=Vera cruz
TTITLE3=Casa forte
TTITLE4=Canto de Ossanha
TTITLE5=Giro
TTITLE6=O barquinho
TTITLE7=Andança
TTITLE8=Recit de Cassard
TTITLE9=Samba de Pergunta
TTITLE10=Memórias de Marta Saré
EXTD=
EXTT0=
EXTT1=
EXTT2=
EXTT3=
EXTT4=
EXTT5=
EXTT6=
EXTT7=
EXTT8=
EXTT9=
EXTT10=
PLAYORDER=
